<?xml version="1.0" encoding="utf-8"?>
<!-- Generator: Adobe Illustrator 26.0.2, SVG Export Plug-In . SVG Version: 6.00 Build 0)  -->
<svg version="1.1"
	 id="svg2" xmlns:cc="http://creativecommons.org/ns#" xmlns:dc="http://purl.org/dc/elements/1.1/" xmlns:rdf="http://www.w3.org/1999/02/22-rdf-syntax-ns#" xmlns:svg="http://www.w3.org/2000/svg"
	 xmlns="http://www.w3.org/2000/svg" xmlns:xlink="http://www.w3.org/1999/xlink" x="0px" y="0px" viewBox="0 0 391.5 161.7"
	 style="enable-background:new 0 0 391.5 161.7;" xml:space="preserve">
<style type="text/css">
	.st0{fill:#B2B2B2;}
	.st1{fill:#003C71;}
	.st2{fill:url(#SVGID_1_);}
</style>
<g>
	<path id="path56" class="st0" d="M16.8,0c-0.4,0-1,0-1.5,0C6.5,0,0,4.8,0,16.2v127.9c0,11.5,6.8,17.6,15.7,17.6c0.3,0,0.8,0,1.1,0
		c5.8,0,7.4-2,7.4-7.4V6.3C24.1,0.9,21.4,0,16.8,0"/>
	<path id="path92" class="st1" d="M129.7,107.8c0,1.9-0.4,3.8-1.1,5.5c-0.8,1.8-1.8,3.3-3.1,4.6c-1.2,1.3-2.7,2.3-4.5,3
		c-1.7,0.7-3.6,1.1-5.5,1.1h-43c-1.9,0-3.8-0.3-5.5-1.1c-1.7-0.7-3.3-1.7-4.6-3c-1.3-1.3-2.3-2.8-3-4.6c-0.7-1.7-1.1-3.6-1.1-5.5
		V39.2c0-1.5,0.8-2.3,2.3-2.3h16.8c1.5,0,2.3,0.8,2.3,2.3v59.9c0,0.7,0.2,1.2,0.7,1.6c0.4,0.4,1,0.6,1.6,0.6h24.1
		c0.7,0,1.2-0.2,1.6-0.6c0.4-0.4,0.6-0.9,0.6-1.6V39.2c0-0.6,0.2-1.2,0.7-1.6s1-0.7,1.7-0.7h16.9c0.7,0,1.2,0.2,1.7,0.7
		c0.5,0.4,0.7,1,0.7,1.6v68.6H129.7z M139.3,0H40.4c-5.3,0-7,1.2-7,6.4v147.9c0,5.7,1.9,7.4,7.1,7.4h7.1h23.6h68.2
		c12,0,18-6,18-17.6V16.2C157.4,5,151.2,0,139.3,0"/>
</g>
<linearGradient id="SVGID_1_" gradientUnits="userSpaceOnUse" x1="182.1285" y1="583.4976" x2="391.4424" y2="583.4976" gradientTransform="matrix(1 0 0 1 0 -504)">
	<stop  offset="0" style="stop-color:#FF3C00;stop-opacity:0.8"/>
	<stop  offset="1" style="stop-color:#E73C7E;stop-opacity:0.8"/>
</linearGradient>
<path class="st2" d="M229,51.1c0-1.9,0.4-3.8,1.1-5.5c0.8-1.8,1.8-3.3,3.1-4.6c1.2-1.3-10-2.8-8.2-3.5c1.7-0.7,16.3-0.6,18.2-0.6h38
	c1.9,0,3.8,0.3,5.5,1.1c1.7,0.7,3.3,1.7,4.6,3c1.3,1.3,2.3,2.8,3,4.6c0.7,1.7,1.1,3.6,1.1,5.5v68.6c0,1.5-0.8,2.3-2.3,2.3h-16.8
	c-1.5,0-2.3-0.8-2.3-2.3V59.8c0-0.7-0.2-1.2-0.7-1.6c-0.4-0.4-1-0.6-1.6-0.6h-20.1c-0.7,0-1.2,0.2-1.6,0.6s-0.6,0.9-0.6,1.6v59.9
	c0,0.6-0.2,1.2-0.7,1.6c-0.5,0.4-1,0.7-1.7,0.7h-15.9c-0.7,0-1.2-0.2-1.7-0.7c-0.5-0.4-0.7-1-0.7-1.6V51.1H229z M182.1,51.1
	c0-1.9,0.4-3.8,1.1-5.5c0.8-1.8,1.8-3.3,3.1-4.6c1.2-1.3,2.7-2.3,4.5-3c1.7-0.7,3.6-1.1,5.5-1.1h39c1.9,0,3.8,0.3,5.5,1.1
	c1.7,0.7,3.3,1.7,4.6,3c1.3,1.3,2.3,2.8,3,4.6c0.7,1.7,1.1,3.6,1.1,5.5v68.6c0,1.5-0.8,2.3-2.3,2.3h-16.8c-1.5,0-2.3-0.8-2.3-2.3
	V59.8c0-0.7-0.2-1.2-0.7-1.6c-0.4-0.4-1-0.6-1.6-0.6h-20.1c-0.7,0-1.2,0.2-1.6,0.6c-0.4,0.4-0.6,0.9-0.6,1.6v59.9
	c0,0.6-0.2,1.2-0.7,1.6c-0.5,0.4-1,0.7-1.7,0.7h-16.9c-0.7,0-1.2-0.2-1.7-0.7c-0.5-0.4-0.7-1-0.7-1.6V51.1H182.1z M336.1,122
	c-1.9,0-3.8-0.4-5.5-1.1c-1.8-0.8-3.3-1.8-4.6-3.1c-1.3-1.2-2.3-2.7-3-4.5c-0.7-1.7-1.1-3.6-1.1-5.5V51.2c0-1.9,0.3-3.8,1.1-5.5
	c0.7-1.7,1.7-3.3,3-4.6c1.3-1.3,2.8-2.3,4.6-3c1.7-0.7,3.6-1.1,5.5-1.1h53.1c1.5,0,2.3,0.8,2.3,2.3v16.8c0,1.5-0.8,2.3-2.3,2.3
	h-44.5c-0.7,0-1.2,0.2-1.6,0.7c-0.4,0.4-0.6,1-0.6,1.6v37.7c0,0.7,0.2,1.2,0.6,1.6c0.4,0.4,0.9,0.6,1.6,0.6h44.5
	c0.6,0,1.2,0.2,1.6,0.7s0.7,1,0.7,1.7v16.7c0,0.7-0.2,1.2-0.7,1.7c-0.4,0.5-1,0.7-1.6,0.7L336.1,122L336.1,122z"/>
</svg>
