<svg viewBox="0 0 31 31" height="31" width="31" id="svg2" version="1.1" xmlns="http://www.w3.org/2000/svg">
  <defs></defs>
  <g id="g10" style="" transform="matrix(0.229286, 0, 0, 0.229286, -0.459157, -1.334984)">
    <g transform="translate(23.4219,134.2432)" id="g54">
      <path style="fill:#b2b2b2;fill-opacity:1;fill-rule:nonzero;stroke:none" d="m 0,0 c -0.309,0 -0.779,-0.036 -1.092,-0.036 -6.636,0 -11.502,-3.595 -11.502,-12.142 v -95.949 c 0,-8.602 5.092,-13.165 11.805,-13.165 0.212,0 0.601,0.019 0.789,0.019 4.331,0 5.527,1.473 5.527,5.532 V -4.759 C 5.527,-0.676 3.488,0 0,0"></path>
    </g>
    <g transform="translate(108.1494,53.4189)" id="g90">
      <path id="path92" style="fill: rgb(0, 60, 113); fill-opacity: 1; fill-rule: nonzero; stroke: none;" d="M 0.016 40.348 C 0.016 41.809 -0.277 43.182 -0.843 44.486 C -1.426 45.799 -2.187 46.939 -3.149 47.922 C -4.075 48.881 -5.201 49.643 -6.511 50.191 C -7.815 50.744 -9.2 51.006 -10.662 51.006 L -42.945 51.006 C -44.388 51.006 -45.788 50.744 -47.088 50.191 C -48.391 49.643 -49.539 48.881 -50.514 47.922 C -51.481 46.939 -52.238 45.799 -52.789 44.486 C -53.341 43.182 -53.615 41.809 -53.615 40.348 L -53.615 -11.108 C -53.615 -12.241 -53.037 -12.823 -51.876 -12.823 L -39.299 -12.823 C -38.139 -12.823 -37.559 -12.241 -37.559 -11.108 L -37.559 33.866 C -37.559 34.353 -37.392 34.75 -37.061 35.043 C -36.73 35.358 -36.317 35.504 -35.834 35.504 L -17.769 35.504 C -17.28 35.504 -16.885 35.358 -16.583 35.043 C -16.289 34.75 -16.122 34.353 -16.122 33.866 L -16.122 -11.108 C -16.122 -11.568 -15.957 -11.989 -15.635 -12.326 C -15.289 -12.654 -14.889 -12.823 -14.391 -12.823 L -1.721 -12.823 C -1.234 -12.823 -0.825 -12.654 -0.483 -12.326 C -0.143 -11.989 0.016 -11.568 0.016 -11.108 Z M 7.219 -40.556 L -66.99 -40.556 C -70.976 -40.556 -72.232 -39.624 -72.232 -35.721 L -72.232 75.278 C -72.232 79.536 -70.787 80.831 -66.929 80.831 L -61.615 80.831 L -43.926 80.831 L 7.219 80.831 C 16.24 80.831 20.742 76.344 20.742 67.629 L 20.742 -28.352 C 20.742 -36.811 16.159 -40.556 7.219 -40.556"></path>
    </g>

  </g>
</svg>